<?xml version="1.0" encoding="UTF-8" standalone="no"?>
<!-- Created with Inkscape (http://www.inkscape.org/) -->

<svg
   width="210mm"
   height="297mm"
   viewBox="0 0 210 297"
   version="1.1"
   id="svg1"
   inkscape:version="1.3 (0e150ed6c4, 2023-07-21)"
   sodipodi:docname="logo.svg"
   xmlns:inkscape="http://www.inkscape.org/namespaces/inkscape"
   xmlns:sodipodi="http://sodipodi.sourceforge.net/DTD/sodipodi-0.dtd"
   xmlns="http://www.w3.org/2000/svg"
   xmlns:svg="http://www.w3.org/2000/svg">
  <sodipodi:namedview
     id="namedview1"
     pagecolor="#ffffff"
     bordercolor="#000000"
     borderopacity="0.25"
     inkscape:showpageshadow="2"
     inkscape:pageopacity="0.0"
     inkscape:pagecheckerboard="0"
     inkscape:deskcolor="#d1d1d1"
     inkscape:document-units="mm"
     inkscape:zoom="0.24919162"
     inkscape:cx="-1512.892"
     inkscape:cy="447.44684"
     inkscape:window-width="1600"
     inkscape:window-height="837"
     inkscape:window-x="-8"
     inkscape:window-y="-8"
     inkscape:window-maximized="1"
     inkscape:current-layer="layer1"
     showgrid="false" />
  <defs
     id="defs1">
    <inkscape:path-effect
       effect="envelope"
       id="path-effect2"
       is_visible="true"
       lpeversion="1"
       yy="true"
       xx="true"
       bendpath1="M -272.51631,122.19288 H 26.887348"
       bendpath2="m 26.887348,122.19288 v 41.34015"
       bendpath3="M -272.51631,163.53303 H 26.887348"
       bendpath4="m -272.51631,122.19288 v 41.34015" />
    <inkscape:path-effect
       effect="perspective-envelope"
       up_left_point="-272.51631,122.19288"
       up_right_point="26.887348,122.19288"
       down_left_point="-272.51631,163.53303"
       down_right_point="26.887348,163.53303"
       id="path-effect1"
       is_visible="true"
       lpeversion="1"
       deform_type="envelope_deformation"
       horizontal_mirror="false"
       vertical_mirror="false"
       overflow_perspective="false" />
  </defs>
  <g
     inkscape:label="Layer 1"
     inkscape:groupmode="layer"
     id="layer1">
    <path
       id="path8"
       style="fill:#ffffff;stroke:none;stroke-width:2.24551;stroke-dasharray:none"
       d="m -421.79277,6.9202243 a 33.452571,47.648932 0 0 1 33.45274,47.6492547 33.452571,47.648932 0 0 1 -1.20911,12.623366 31.908609,25.133503 0 0 1 14.11862,8.157491 58.670668,52.361464 0 0 1 21.05745,-3.501417 58.670668,52.361464 0 0 1 5.31211,0.338845 41.172403,49.572584 0 0 1 -0.16568,-2.786269 41.172403,49.572584 0 0 1 41.17268,-49.572899 41.172403,49.572584 0 0 1 39.85427,37.541198 63.302565,55.503149 0 0 1 29.62408,-6.465598 63.302565,55.503149 0 0 1 63.30231,55.503014 63.302565,55.503149 0 0 1 -60.00115,55.29585 36.540503,56.550377 0 0 1 -36.23904,49.42717 36.540503,56.550377 0 0 1 -36.47777,-55.06467 58.670668,52.361464 0 0 1 -46.38181,20.50638 58.670668,52.361464 0 0 1 -53.40229,-30.69051 62.787908,68.0699 0 0 1 -49.52881,26.50145 62.787908,68.0699 0 0 1 -62.78748,-68.0702 62.787908,68.0699 0 0 1 62.78748,-68.069613 62.787908,68.0699 0 0 1 4.53902,0.351722 33.452571,47.648932 0 0 1 30.97238,-29.6745647 z"
       inkscape:export-filename="logoQ3_2023.png"
       inkscape:export-xdpi="23.950359"
       inkscape:export-ydpi="23.950359" />
    <path
       style="fill:#000000;stroke:#ffffff;stroke-width:2;stroke-dasharray:none"
       d="m -488.34654,58.498709 c -3.26937,-3.37835 -7.05784,-6.322171 -9.80812,-10.135052 -17.39805,-24.120057 11.1272,-44.7881527 12.09668,-46.0981377 -1.86172,-0.18034 -9.38809,1.946925 -9.48118,1.961623 -34.81873,5.497696 -35.14008,32.4460507 -34.65533,39.2324577 0.13482,1.887572 3.12065,12.63133 2.28856,10.135052 -7.75642,-7.992527 -22.73621,-6.858271 -32.03984,-1.961622 -5.66502,2.981588 -9.70749,11.17244 -16.01993,12.750549 -8.28123,2.070309 -31.87716,-4.739011 -40.86714,-15.366047 -1.22078,9.685598 11.02777,52.741058 47.73282,50.756994 6.10202,-0.329839 11.55817,-0.774021 15.69299,-6.29354 -1.65436,4.37624 -5.13773,8.227744 -6.29354,11.606274 -2.95296,8.63179 -4.93271,20.82795 -15.61125,23.70294 -5.57379,1.50064 -29.67968,-5.10332 -21.57785,-9.15424 -3.82425,13.89065 21.18409,26.80885 32.36678,26.80885 8.84673,0 16.55829,-2.58549 23.21253,-8.50037 1.57332,-1.3985 3.54065,-3.04674 3.92325,-4.57712 -3.25518,3.36334 -2.96626,7.82698 -1.96162,12.09668 3.90155,16.58159 17.31481,25.82803 34.00146,25.82803 2.72295,0 14.59181,-1.87539 13.07748,-4.90405 -11.25536,-8.09761 -11.45628,-20.88016 0.98081,-27.78966 3.32886,-1.84937 6.38656,-4.17409 9.80812,-5.88487 1.23296,-0.61648 5.1562,-1.92423 3.92324,-1.30775"
       id="path6"
       sodipodi:nodetypes="cscsscsscscsscsscsscssc" />
    <path
       d="m -428.67904,132.03545 h 7.30253 q 7.30253,0 9.87557,0.56362 2.59754,0.56361 4.21488,2.8916 1.64184,2.30348 1.64184,7.37604 0,4.63147 -1.15174,6.22431 -1.15174,1.59283 -4.53345,1.9114 3.06314,0.75966 4.11686,2.03392 1.05373,1.27427 1.29878,2.35249 0.26955,1.05373 0.26955,5.85673 v 10.46369 h -9.5815 v -13.18376 q 0,-3.18567 -0.51461,-3.94532 -0.4901,-0.75966 -2.62205,-0.75966 v 17.88874 h -10.31666 z m 10.31666,6.78792 v 8.82184 q 1.73987,0 2.42601,-0.46559 0.71065,-0.49011 0.71065,-3.11215 v -2.18096 q 0,-1.8869 -0.68615,-2.47502 -0.66163,-0.58812 -2.45051,-0.58812 z m 38.6936,-6.78792 -7.52308,25.3138 v 14.36 h -9.557 v -14.36 l -7.25351,-25.3138 h 9.48348 q 2.22997,11.59092 2.49952,15.60976 0.85768,-6.34682 2.8671,-15.60976 z m 25.21577,0 V 158.55 q 0,4.50894 -0.29406,6.34682 -0.29406,1.81338 -1.73986,3.74929 -1.4458,1.9114 -3.8228,2.91611 -2.35249,0.9802 -5.56267,0.9802 -3.55324,0 -6.27331,-1.17624 -2.72007,-1.17625 -4.06785,-3.06314 -1.34778,-1.8869 -1.59283,-3.96983 -0.24505,-2.10744 -0.24505,-8.82185 v -23.47591 h 10.31665 v 29.74922 q 0,2.59755 0.26956,3.3327 0.29406,0.71065 1.15174,0.71065 0.98021,0 1.24976,-0.78416 0.29407,-0.80867 0.29407,-3.77379 v -29.23462 z m 28.57298,0 -5.90573,17.91325 6.46935,21.76055 h -10.65973 l -4.16587,-17.00656 v 17.00656 h -10.31666 v -39.6738 h 10.31666 v 15.41372 l 4.58246,-15.41372 z m 2.3525,0 h 17.2026 v 7.93966 h -6.88594 v 7.52307 h 6.44484 v 7.54758 h -6.44484 v 8.72383 h 7.57208 v 7.93966 h -17.88874 z m 43.88868,0 v 39.6738 h -9.0424 l -5.36662,-18.03577 v 18.03577 h -8.6258 v -39.6738 h 8.6258 l 5.78321,17.86424 v -17.86424 z m 27.71529,23.23086 q 0,5.97925 -0.29406,8.47877 -0.26956,2.47502 -1.76437,4.53345 -1.47031,2.05843 -3.99433,3.16116 -2.52403,1.10273 -5.88123,1.10273 -3.18567,0 -5.7342,-1.02921 -2.52403,-1.05372 -4.06785,-3.13666 -1.54383,-2.08293 -1.83789,-4.53345 -0.29406,-2.45051 -0.29406,-8.57679 v -6.78792 q 0,-5.97925 0.26956,-8.45427 0.29406,-2.49952 1.76437,-4.55795 1.49481,-2.05843 4.01884,-3.16116 2.52403,-1.10274 5.88123,-1.10274 3.18566,0 5.70969,1.05372 2.54853,1.02922 4.09236,3.11216 1.54382,2.08293 1.83788,4.53344 0.29406,2.45052 0.29406,8.5768 z m -10.31665,-13.03673 q 0,-2.76908 -0.31857,-3.52874 -0.29406,-0.78416 -1.24976,-0.78416 -0.80867,0 -1.24976,0.63713 -0.41659,0.61263 -0.41659,3.67577 v 18.52588 q 0,3.45522 0.26956,4.26389 0.29406,0.80867 1.32327,0.80867 1.05372,0 1.34778,-0.9312 0.29407,-0.93119 0.29407,-4.43542 z m 24.48061,-10.19413 v 39.6738 h -10.31666 v -39.6738 z m 4.14137,0 h 7.71911 q 7.47406,0 10.09611,0.68614 2.64656,0.68615 4.01884,2.25447 1.37229,1.56833 1.71536,3.50424 0.34307,1.9114 0.34307,7.54758 v 13.8944 q 0,5.34212 -0.5146,7.1555 -0.49011,1.78887 -1.73987,2.81809 -1.24976,1.00471 -3.08764,1.4213 -1.83789,0.39208 -5.53816,0.39208 h -13.01222 z m 10.31665,6.78792 v 26.09796 q 2.22997,0 2.74458,-0.88219 0.51461,-0.90668 0.51461,-4.87652 V 143.7489 q 0,-2.69556 -0.17154,-3.45522 -0.17154,-0.75966 -0.78416,-1.10273 -0.61263,-0.36758 -2.30349,-0.36758 z m 35.72848,10.41468 q 2.25447,0.75966 3.35721,2.49952 1.10273,1.71536 1.10273,8.08669 0,4.72949 -1.07823,7.35154 -1.07822,2.59754 -3.72478,3.96983 -2.64655,1.34778 -6.78792,1.34778 -4.70498,0 -7.40055,-1.56832 -2.67106,-1.59284 -3.52874,-3.87181 -0.83317,-2.30349 -0.83317,-7.96417 v -3.13666 h 9.90007 v 6.44485 q 0,2.57304 0.29406,3.28369 0.31857,0.68614 1.37229,0.68614 1.15174,0 1.51932,-0.88218 0.36757,-0.88219 0.36757,-4.60697 v -2.74457 q 0,-2.27898 -0.5146,-3.3327 -0.51461,-1.05372 -1.51932,-1.37229 -1.00471,-0.34307 -3.89632,-0.39208 v -5.7587 q 3.52874,0 4.36192,-0.26956 0.83317,-0.26956 1.20075,-1.17624 0.36757,-0.90669 0.36757,-2.8426 v -2.20546 q 0,-2.08294 -0.44109,-2.74458 -0.41658,-0.66163 -1.32327,-0.66163 -1.02922,0 -1.4213,0.71065 -0.36758,0.68614 -0.36758,2.96512 v 3.25918 h -9.90007 v -3.38171 q 0,-5.68519 2.59754,-7.6701 2.59755,-2.00943 8.25823,-2.00943 7.08198,0 9.60601,2.76908 2.52403,2.76908 2.52403,7.69461 0,3.3327 -0.90669,4.82751 -0.90669,1.47031 -3.18567,2.69557 z m 29.6267,-17.2026 v 6.34683 h -12.27707 v 6.73891 q 2.30348,-2.72007 5.93024,-2.72007 4.09236,0 6.17529,2.30348 2.10744,2.27898 2.10744,8.79734 v 5.66068 q 0,4.21489 -0.41658,6.1998 -0.39209,1.96041 -1.71536,3.65127 -1.32328,1.66634 -3.70028,2.57303 -2.35249,0.88219 -5.7587,0.88219 -3.8228,0 -6.73891,-1.32328 -2.91611,-1.34778 -4.14137,-3.99433 -1.22526,-2.64656 -1.22526,-8.18472 v -2.15645 h 9.90008 v 2.47502 q 0,3.84731 0.26955,5.46464 0.26956,1.61734 1.86239,1.61734 0.73516,0 1.17625,-0.4656 0.4656,-0.46559 0.4901,-1.00471 0.049,-0.53911 0.098,-4.68048 v -7.86614 q 0,-2.22997 -0.4656,-3.03864 -0.46559,-0.80867 -1.54382,-0.80867 -0.68614,0 -1.15174,0.41659 -0.4656,0.41659 -0.61263,0.90669 -0.12252,0.4656 -0.12252,2.20546 h -9.80205 l 0.41658,-19.99618 z m 28.67101,13.42881 v 13.23277 q 0,4.50894 -0.4901,6.56737 -0.4901,2.05843 -2.03392,3.84731 -1.54383,1.78887 -3.72478,2.57303 -2.18096,0.78417 -4.87652,0.78417 -3.55325,0 -5.90574,-0.80867 -2.35249,-0.83317 -3.74928,-2.57304 -1.3968,-1.73986 -1.98492,-3.65126 -0.58812,-1.93591 -0.58812,-6.12628 v -13.8454 q 0,-5.46465 0.93119,-8.18471 0.9557,-2.72007 3.74929,-4.36192 2.81809,-1.64184 6.81242,-1.64184 3.25918,0 5.83222,1.15174 2.57304,1.12724 3.84731,2.76908 1.27426,1.64184 1.71536,3.70027 0.46559,2.05843 0.46559,6.56738 z m -9.90007,-3.3327 q 0,-3.16116 -0.31856,-3.94532 -0.29407,-0.80867 -1.4213,-0.80867 -1.10273,0 -1.47031,0.85768 -0.34307,0.83317 -0.34307,3.89631 v 19.35905 q 0,3.45522 0.31857,4.16587 0.34307,0.71065 1.4458,0.71065 1.10273,0 1.4458,-0.83317 0.34307,-0.83318 0.34307,-3.74929 z"
       id="text1"
       style="font-stretch:condensed;font-size:50.1865px;font-family:Impact;-inkscape-font-specification:'Impact Condensed';stroke:#ffffff;stroke-width:2.63791"
       aria-label="RYUKENOID350" />
    <path
       style="fill:#000000;stroke:#ffffff;stroke-width:2;stroke-dasharray:none"
       d="m -508.68625,94.167069 c 3.37034,-24.938301 50.74433,-32.386381 62.24966,2.129591 0.74237,2.22712 1.34479,12.15659 1.63815,12.44994 0.39912,0.39912 3.51011,0.84241 3.93155,0.98289 8.7258,3.67445 17.68028,6.23356 26.04657,10.64797 0.0363,0.0181 1.31052,0.74758 1.31052,0.65526 0,-4.5215 -10.03606,22.44264 -13.59663,22.44264 -5.54519,0 -45.47289,-0.0444 -61.26678,-6.06115 -10.37701,-3.95315 -19.61238,-13.18311 -21.62356,-24.24461 -0.51432,-2.82875 -1.65546,-5.50977 -2.1296,-8.35456 -0.36272,-2.17636 1.0162,-6.323978 2.29341,-8.026934 0.33525,-0.446993 1.06462,-1.063565 1.14671,-1.63815 0.0463,-0.324336 -0.25169,-0.773144 0,-0.982887 1.20721,-1.006009 0.71358,0.20388 1.1467,0.327628"
       id="path1"
       sodipodi:nodetypes="cssscsssssscsc" />
    <path
       style="fill:#000000;stroke:#ffffff;stroke-width:2;stroke-dasharray:none"
       d="m -474.19467,95.206027 c 4.11929,0.925692 8.28624,3.508848 12.0468,5.560063 1.36599,0.74509 10.80384,4.69584 11.35179,5.79174 2.38671,4.77341 -10.4758,23.57958 -21.54524,12.51014 -4.3667,-4.3667 -5.40582,-14.05379 -3.93838,-19.923565 0.25536,-1.02144 2.08007,-3.938378 2.08503,-3.938378 0.62259,0 1.08112,0.617786 1.62168,0.926676"
       id="path2" />
    <path
       style="fill:#000000;stroke:#ffffff;stroke-width:2;stroke-dasharray:none"
       d="m -438.74928,102.38778 c -0.39342,2.36054 -0.6352,8.06004 -3.24337,8.34009 -11.6577,1.25174 -27.13721,-13.158933 -33.07457,-15.385442 -3.61486,-1.355571 -26.79896,-7.421015 -28.31778,-8.939832 l -13.20514,-30.580343 c 34.72054,-2.587707 81.06193,1.37679 77.84086,46.565527 z"
       id="path3"
       sodipodi:nodetypes="sssccs" />
    <ellipse
       style="fill:#000000;stroke:#ffffff;stroke-width:2;stroke-dasharray:none"
       id="path4"
       cx="-510.68259"
       cy="113.04455"
       rx="29.306162"
       ry="31.738689" />
    <path
       style="fill:#000000;stroke:#ffffff;stroke-width:2;stroke-dasharray:none"
       d="m -526.45616,92.716192 c 5.42932,8.651888 14.97679,27.433038 14.97679,27.433038 l 28.56288,3.30107 c 0,0 4.70204,-28.110835 0.86322,-36.748177 -1.02686,-2.310427 -5.28307,-5.884988 -16.74761,-12.999106 -20.56161,-10.410839 -45.62672,-9.530127 -68.29038,-9.223374 14.03597,8.593905 28.72208,16.813299 40.6351,28.236549 z"
       id="path5"
       sodipodi:nodetypes="cccsccc" />
    <text
       xml:space="preserve"
       style="font-style:normal;font-variant:normal;font-weight:normal;font-stretch:condensed;font-size:20.1988px;font-family:Impact;-inkscape-font-specification:'Impact Condensed';fill:#000000;stroke:none;stroke-width:0;stroke-dasharray:none"
       x="-408.53198"
       y="128.35289"
       id="text21"><tspan
         sodipodi:role="line"
         id="tspan21"
         style="fill:#000000;stroke:none;stroke-width:0;stroke-dasharray:none"
         x="-408.53198"
         y="128.35289">art of</tspan></text>
  </g>
</svg>
