<?xml version="1.0" encoding="UTF-8" standalone="no"?>
<!-- Created with Inkscape (http://www.inkscape.org/) -->

<svg
   width="210mm"
   height="297mm"
   viewBox="0 0 210 297"
   version="1.1"
   id="svg1"
   inkscape:export-filename="2020s_text.png"
   inkscape:export-xdpi="15.064896"
   inkscape:export-ydpi="15.064896"
   inkscape:version="1.3 (0e150ed6c4, 2023-07-21)"
   sodipodi:docname="templates.svg"
   xmlns:inkscape="http://www.inkscape.org/namespaces/inkscape"
   xmlns:sodipodi="http://sodipodi.sourceforge.net/DTD/sodipodi-0.dtd"
   xmlns="http://www.w3.org/2000/svg"
   xmlns:svg="http://www.w3.org/2000/svg">
  <sodipodi:namedview
     id="namedview1"
     pagecolor="#ffffff"
     bordercolor="#000000"
     borderopacity="0.25"
     inkscape:showpageshadow="2"
     inkscape:pageopacity="0.0"
     inkscape:pagecheckerboard="0"
     inkscape:deskcolor="#d1d1d1"
     inkscape:document-units="mm"
     inkscape:zoom="0.017844899"
     inkscape:cx="-2549.7483"
     inkscape:cy="10114.936"
     inkscape:window-width="1600"
     inkscape:window-height="837"
     inkscape:window-x="-8"
     inkscape:window-y="-8"
     inkscape:window-maximized="1"
     inkscape:current-layer="layer1" />
  <defs
     id="defs1">
    <rect
       x="-3243.2238"
       y="6493.4524"
       width="4812.2997"
       height="2472.6955"
       id="rect17" />
    <rect
       x="-2031.3929"
       y="6969.779"
       width="0"
       height="28.019212"
       id="rect15" />
  </defs>
  <g
     inkscape:label="Layer 1"
     inkscape:groupmode="layer"
     id="layer1">
    <path
       id="path1"
       style="fill:#ffffff;stroke:none;stroke-width:0"
       d="M -255.87896 5.8973145 A 29.814314 52.420769 0 0 0 -282.73468 35.800399 A 56.024696 47.506321 0 0 0 -302.40221 32.762858 A 56.024696 47.506321 0 0 0 -354.13239 62.28147 A 48.816845 47.506321 0 0 0 -355.47856 62.24943 A 48.816845 47.506321 0 0 0 -404.29522 109.75609 A 48.816845 47.506321 0 0 0 -355.65426 157.24983 A 42.591877 52.09314 0 0 0 -356.46145 166.76346 A 42.591877 52.09314 0 0 0 -313.86921 218.85693 A 42.591877 52.09314 0 0 0 -285.7686 205.87736 A 56.679958 49.799732 0 0 0 -244.73958 221.47795 A 56.679958 49.799732 0 0 0 -189.23083 181.16672 A 56.024696 33.418243 0 0 0 -175.93706 182.16201 A 56.024696 33.418243 0 0 0 -130.99562 168.64655 A 54.71418 41.936615 0 0 0 -123.51649 169.05686 A 54.71418 41.936615 0 0 0 -68.802519 127.12041 A 54.71418 41.936615 0 0 0 -123.51649 85.183948 A 54.71418 41.936615 0 0 0 -132.29218 85.791663 A 67.164116 59.300999 0 0 0 -194.93952 47.833773 A 67.164116 59.300999 0 0 0 -226.1402 54.783219 A 29.814314 52.420769 0 0 0 -255.87896 5.8973145 z "
       inkscape:export-filename="abouttext.png"
       inkscape:export-xdpi="23.910341"
       inkscape:export-ydpi="23.910341" />
    <text
       xml:space="preserve"
       style="font-stretch:condensed;font-size:111.639px;font-family:Impact;-inkscape-font-specification:'Impact Condensed';fill:#000000;stroke:#ffffff;stroke-width:3.54456;stroke-dasharray:none"
       x="-293.56534"
       y="221.14746"
       id="text9"
       inkscape:export-filename="hometext"
       inkscape:export-xdpi="96"
       inkscape:export-ydpi="96"><tspan
         sodipodi:role="line"
         id="tspan9"
         style="stroke:#ffffff;stroke-width:3.54456;stroke-dasharray:none"
         x="-293.56534"
         y="221.14746">ABOUT</tspan></text>
    <path
       id="rect9"
       style="fill:#ffffff;stroke:none;stroke-width:1.43843;stroke-dasharray:none"
       d="m -401.46034,1023.0514 v 49.114 H -626.4336 v 53.8668 h 71.2943 v 53.8668 h 93.4748 v 39.608 h 285.17764 v -44.3608 h -61.78849 v -1.5844 h 205.961427 v -33.2708 h -88.721797 v -117.2396 z"
       inkscape:export-filename="cctext.png"
       inkscape:export-xdpi="15.064896"
       inkscape:export-ydpi="15.064896" />
    <text
       xml:space="preserve"
       style="font-stretch:condensed;font-size:180.075px;font-family:Impact;-inkscape-font-specification:'Impact Condensed';fill:#000000;stroke:#ffffff;stroke-width:7.88078;stroke-dasharray:none"
       x="-1010.1323"
       y="1133.2865"
       id="text13"><tspan
         sodipodi:role="line"
         id="tspan13"
         style="stroke-width:7.88078;stroke-dasharray:none"
         x="-1010.1323"
         y="1133.2865" /></text>
    <text
       xml:space="preserve"
       transform="scale(0.26458333)"
       id="text14"
       style="font-stretch:condensed;font-size:26.6667px;font-family:Impact;-inkscape-font-specification:'Impact Condensed';white-space:pre;shape-inside:url(#rect15);fill:#000000;stroke:#ffffff;stroke-width:64.9134;stroke-dasharray:none" />
    <text
       xml:space="preserve"
       transform="scale(0.26458333)"
       id="text17"
       style="fill:#000000;stroke-width:18.42519271;-inkscape-font-specification:'Impact Condensed';font-family:Impact;font-size:266.66666667px;font-stretch:condensed;stroke:#ffffff;stroke-dasharray:none;white-space:pre;shape-inside:url(#rect17)" />
    <path
       id="path30"
       style="fill:#ffffff;stroke:none;stroke-width:1.96684;stroke-dasharray:none"
       d="m -452.02538,1685.3738 c -5.52753,0.9585 -23.17392,18.688 -25.37227,20.1535 -13.99599,9.3307 -97.44529,82.2519 -98.70195,82.2519 -13.90724,0 -83.78786,-33.8159 -98.70216,-40.3782 -20.43187,-8.99 -150.83602,-62.4505 -170.48547,-49.351 -25.44358,16.9624 -37.66635,65.8876 -57.44604,95.8582 -31.80497,-7.8628 -65.29003,-5.6976 -93.66067,7.3107 -57.27426,15.9304 -67.09846,45.867 -61.86186,86.7125 0.3995,3.116 0.868,6.0591 1.315,9.0554 -7.053,7.138 -13.6184,14.9928 -22.4645,19.4963 -44.4683,22.6385 -75.4548,-35.8182 -112.0916,-5.2875 -18.7232,15.6026 -32.8724,48.9773 -39.1262,71.908 -0.5214,1.9119 -4.1592,27.4941 -3.1726,27.4941 1.7973,0 -0.2133,-4.0164 1.0577,-5.2874 8.4901,-8.49 35.8972,-22.7637 47.5859,-16.9194 3.159,1.5796 -0.1908,13.5723 0,15.8619 1.4595,17.5145 11.1308,37.5674 23.2644,49.7011 0.6562,0.6561 1.9363,-11.2606 2.1149,-12.6896 1.7787,-14.2296 2.9369,-35.7185 13.7471,-46.5286 1.7347,-1.7348 0.9927,4.0358 1.0574,4.2298 0.8038,2.4115 3.0931,4.0713 4.2299,6.3448 4.2776,8.5553 21.2536,35.954 32.7816,35.954 4.636,0 -2.4714,-47.2295 5.2873,-54.9883 0.6858,-0.6859 7.0731,9.0562 7.4022,9.5172 4.626,6.4763 24.2049,30.6666 31.7241,30.6666 3.7712,0 0.3113,-29.9203 5.2874,-34.8965 3.0772,-3.0772 23.156,31.0994 24.3217,26.4367 1.4826,-5.9306 0.4281,-13.1306 2.1149,-19.0345 0.8619,-3.0167 3.4376,-9.2468 6.822,-15.9019 4.4364,10.3806 22.0512,41.2957 31.49337,60.0759 -22.86317,-9.1672 -48.01817,-9.7532 -71.61987,3.3588 -14.6489,8.1384 -26.8029,18.1758 -43.369,20.9369 -17.8291,2.9714 -40.2526,-4.9433 -56.8284,-10.4686 -2.0064,-0.6688 -2.3716,-4.4865 -4.4865,-4.4865 -1.2122,0 19.5323,20.0941 20.9368,20.9369 13.2487,7.9492 27.2585,18.6131 41.8737,23.9278 18.1621,6.6044 35.9336,0.1499 53.984,0.8796 -2.4431,1.0836 -4.9889,2.3004 -7.3576,3.3156 -12.6918,5.4393 -54.9124,26.1453 -67.6782,24.3217 -16.911,-2.4159 -43.8542,-25.3791 -54.9881,-25.3791 -7.7012,0 14.7148,29.3919 15.862,30.6666 18.1455,20.1618 46.8116,48.1855 74.0227,54.9882 33.5192,8.3798 95.70261,-21.7081 126.89612,-33.8389 6.51823,-2.5348 73.00621,-34.978 75.08037,-39.1264 0.99687,-1.9938 1.33279,-5.0558 2.11493,-7.4022 5.32629,-15.9789 9.6094,-33.2292 14.85204,-49.9091 4.87699,7.6837 10.47764,15.064 16.95779,22.0426 23.78662,25.6164 62.94333,40.1558 94.21566,53.8375 7.40166,3.2382 69.1178,23.2768 73.27881,14.9548 1.13348,-2.2669 -60.91061,-55.4608 -67.2968,-61.3147 -7.02045,-6.4355 -27.95961,-25.1961 -19.44134,-20.9369 45.90484,22.9525 69.63815,34.8251 124.1253,23.9276 3.14916,-0.6297 29.90965,-8.1911 29.90965,-13.4593 0,-1.0563 -31.10722,-3.9974 -32.90066,-4.4865 -24.3921,-6.6524 -51.03361,-13.2894 -73.27882,-25.4231 -2.18285,-1.1906 -38.63435,-22.6807 -34.39614,-26.9189 1.8982,-1.8982 4.93059,2.1421 7.4773,2.991 4.24791,1.416 10.85277,2.3599 14.95503,2.991 27.59593,4.2456 58.0223,2.4603 83.74713,-8.973 14.76093,-6.5603 62.8105,-39.7777 62.8105,-59.8193 0,-5.2044 -10.08196,2.6591 -14.95503,4.4866 -11.23109,4.2116 -23.84207,3.8515 -35.89165,2.9907 -42.53017,-3.0379 -80.84538,-22.6039 -120.33682,-37.2993 8.56124,-7.1283 16.48811,-14.3822 23.13037,-21.0245 1.45334,-1.4533 3.92646,1.4954 5.9818,1.4954 19.78222,0 42.76314,7.7058 64.306,8.973 15.12326,0.8896 132.54591,11.0207 140.57563,2.991 32.36829,-32.3684 50.12018,-87.1868 62.8105,-131.6028 7.51383,-26.2984 27.49636,-71.5459 17.94583,-100.1975 -0.21463,-0.6439 -0.75693,-0.8493 -1.54658,-0.7124 z"
       inkscape:export-filename="pre2018.png"
       inkscape:export-xdpi="15.064896"
       inkscape:export-ydpi="15.064896" />
    <text
       xml:space="preserve"
       style="font-stretch:condensed;font-size:253.406px;font-family:Impact;-inkscape-font-specification:'Impact Condensed';fill:#000000;stroke:#ffffff;stroke-width:17.509;stroke-dasharray:none"
       x="-921.01953"
       y="2023.6791"
       id="text34"
       inkscape:export-filename="2018_19text.png"
       inkscape:export-xdpi="15.064896"
       inkscape:export-ydpi="15.064896"><tspan
         sodipodi:role="line"
         id="tspan34"
         style="fill:#000000;stroke:#ffffff;stroke-width:17.509"
         x="-921.01953"
         y="2023.6791">Pre-2018</tspan></text>
    <path
       id="path34"
       style="fill:#ffffff;stroke:none;stroke-width:1.96684;stroke-dasharray:none"
       d="m -470.55892,2337.7545 c -5.52753,0.9585 -23.17392,18.688 -25.37227,20.1535 -13.99599,9.3307 -97.44529,82.2519 -98.70195,82.2519 -13.90724,0 -83.78786,-33.8159 -98.70216,-40.3782 -20.43187,-8.99 -150.83602,-62.4505 -170.48547,-49.351 -25.44358,16.9624 -37.66635,65.8876 -57.44604,95.8582 -31.80497,-7.8628 -65.29003,-5.6976 -93.66069,7.3107 -57.2742,15.9304 -67.0984,45.867 -61.8618,86.7125 0.3995,3.116 0.868,6.0591 1.315,9.0554 -7.053,7.138 -13.6184,14.9928 -22.4645,19.4963 -44.4683,22.6385 -75.4548,-35.8182 -112.0916,-5.2875 -18.7232,15.6026 -32.8724,48.9773 -39.1262,71.908 -0.5214,1.9119 -4.1592,27.4941 -3.1726,27.4941 1.7973,0 -0.2133,-4.0164 1.0577,-5.2874 8.4901,-8.49 35.8972,-22.7637 47.5859,-16.9194 3.159,1.5796 -0.1908,13.5723 0,15.8619 1.4595,17.5145 11.1308,37.5674 23.2644,49.7011 0.6562,0.6561 1.9363,-11.2606 2.1149,-12.6896 1.7787,-14.2296 2.9369,-35.7185 13.7471,-46.5286 1.7347,-1.7348 0.9927,4.0358 1.0574,4.2298 0.8038,2.4115 3.0931,4.0713 4.2299,6.3448 4.2776,8.5553 21.2536,35.954 32.7816,35.954 4.636,0 -2.4714,-47.2295 5.2873,-54.9883 0.6858,-0.6859 7.0731,9.0562 7.4022,9.5172 4.626,6.4763 24.2049,30.6666 31.7241,30.6666 3.7712,0 0.3113,-29.9203 5.2874,-34.8965 3.0772,-3.0772 23.156,31.0994 24.3217,26.4367 1.4826,-5.9306 0.4281,-13.1306 2.1149,-19.0345 0.8619,-3.0167 3.4376,-9.2468 6.822,-15.9019 4.4364,10.3806 22.0512,41.2957 31.4933,60.0759 -22.8631,-9.1672 -48.0181,-9.7532 -71.6198,3.3588 -14.6489,8.1384 -26.8029,18.1758 -43.369,20.9369 -17.8291,2.9714 -40.2526,-4.9433 -56.8284,-10.4686 -2.0064,-0.6688 -2.3716,-4.4865 -4.4865,-4.4865 -1.2122,0 19.5323,20.0941 20.9368,20.9369 13.2487,7.9492 27.2585,18.6131 41.8737,23.9278 18.1621,6.6044 35.9336,0.1499 53.984,0.8796 -2.4431,1.0836 -4.9889,2.3004 -7.3576,3.3156 -12.6918,5.4393 -54.9124,26.1453 -67.6782,24.3217 -16.911,-2.4159 -43.8542,-25.3791 -54.9881,-25.3791 -7.7012,0 14.7148,29.3919 15.862,30.6666 18.1455,20.1618 46.8116,48.1855 74.0227,54.9882 33.5192,8.3798 95.7026,-21.7081 126.89608,-33.8389 6.51823,-2.5348 73.00621,-34.978 75.08037,-39.1264 0.99687,-1.9938 1.33279,-5.0558 2.11493,-7.4022 5.32629,-15.9789 9.6094,-33.2292 14.85204,-49.9091 4.87699,7.6837 10.47764,15.064 16.95779,22.0426 23.78662,25.6164 62.94333,40.1558 94.21566,53.8375 7.40166,3.2382 69.1178,23.2768 73.27881,14.9548 1.13348,-2.2669 -60.91061,-55.4608 -67.2968,-61.3147 -7.02045,-6.4355 -27.95961,-25.1961 -19.44134,-20.9369 45.90484,22.9525 69.63815,34.8251 124.1253,23.9276 3.14916,-0.6297 29.90965,-8.1911 29.90965,-13.4593 0,-1.0563 -31.10722,-3.9974 -32.90066,-4.4865 -24.3921,-6.6524 -51.03361,-13.2894 -73.27882,-25.4231 -2.18285,-1.1906 -38.63435,-22.6807 -34.39614,-26.9189 1.8982,-1.8982 4.93059,2.1421 7.4773,2.991 4.24791,1.416 10.85277,2.3599 14.95503,2.991 27.59593,4.2456 58.0223,2.4603 83.74713,-8.973 14.76093,-6.5603 62.8105,-39.7777 62.8105,-59.8193 0,-5.2044 -10.08196,2.6591 -14.95503,4.4866 -11.23109,4.2116 -23.84207,3.8515 -35.89165,2.9907 -42.53017,-3.0379 -80.84538,-22.6039 -120.33682,-37.2993 8.56124,-7.1283 16.48811,-14.3822 23.13037,-21.0245 1.45334,-1.4533 3.92646,1.4954 5.9818,1.4954 19.78222,0 42.76314,7.7058 64.306,8.973 15.12326,0.8896 132.54591,11.0207 140.57563,2.991 32.36829,-32.3684 50.12018,-87.1868 62.8105,-131.6028 7.51383,-26.2984 27.49636,-71.5459 17.94583,-100.1975 -0.21463,-0.6439 -0.75693,-0.8493 -1.54658,-0.7124 z"
       inkscape:export-filename="2018_19text.png"
       inkscape:export-xdpi="15.064896"
       inkscape:export-ydpi="15.064896" />
    <text
       xml:space="preserve"
       style="font-stretch:condensed;font-size:253.406px;font-family:Impact;-inkscape-font-specification:'Impact Condensed';fill:#000000;stroke:#ffffff;stroke-width:17.509;stroke-dasharray:none"
       x="-939.5531"
       y="2676.0596"
       id="text35"
       inkscape:export-filename="2018_19text.png"
       inkscape:export-xdpi="15.064896"
       inkscape:export-ydpi="15.064896"><tspan
         sodipodi:role="line"
         id="tspan35"
         style="fill:#000000;stroke:#ffffff;stroke-width:17.509"
         x="-939.5531"
         y="2676.0596">2018-19</tspan></text>
    <path
       id="path35"
       style="fill:#ffffff;stroke:none;stroke-width:1.96684;stroke-dasharray:none"
       d="m -370.4778,3019.7888 c -5.52753,0.9585 -23.17392,18.688 -25.37227,20.1535 -13.99599,9.3307 -97.44529,82.2519 -98.70195,82.2519 -13.90724,0 -83.78786,-33.8159 -98.70216,-40.3782 -20.43187,-8.99 -150.83602,-62.4505 -170.48547,-49.351 -25.44358,16.9624 -37.66635,65.8876 -57.44604,95.8582 -31.80497,-7.8628 -65.29003,-5.6976 -93.66073,7.3107 -57.2742,15.9304 -67.0984,45.867 -61.8618,86.7125 0.3995,3.116 0.868,6.0591 1.315,9.0554 -7.053,7.138 -13.6184,14.9928 -22.4645,19.4963 -44.46828,22.6385 -75.45478,-35.8182 -112.09158,-5.2875 -18.7232,15.6026 -32.8724,48.9773 -39.1262,71.908 -0.5214,1.9119 -4.1592,27.4941 -3.1726,27.4941 1.7973,0 -0.2133,-4.0164 1.0577,-5.2874 8.4901,-8.49 35.8972,-22.7637 47.5859,-16.9194 3.159,1.5796 -0.1908,13.5723 0,15.8619 1.4595,17.5145 11.1308,37.5674 23.2644,49.7011 0.6562,0.6561 1.9363,-11.2606 2.1149,-12.6896 1.7787,-14.2296 2.9369,-35.7185 13.7471,-46.5286 1.7347,-1.7348 0.9927,4.0358 1.0574,4.2298 0.8038,2.4115 3.0931,4.0713 4.2299,6.3448 4.2776,8.5553 21.2536,35.954 32.7816,35.954 4.636,0 -2.4714,-47.2295 5.2873,-54.9883 0.6858,-0.6859 7.0731,9.0562 7.4022,9.5172 4.626,6.4763 24.20488,30.6666 31.72408,30.6666 3.7712,0 0.3113,-29.9203 5.2874,-34.8965 3.0772,-3.0772 23.156,31.0994 24.3217,26.4367 1.4826,-5.9306 0.4281,-13.1306 2.1149,-19.0345 0.8619,-3.0167 3.4376,-9.2468 6.822,-15.9019 4.4364,10.3806 22.0512,41.2957 31.4933,60.0759 -22.8631,-9.1672 -48.0181,-9.7532 -71.6198,3.3588 -14.6489,8.1384 -26.80288,18.1758 -43.36898,20.9369 -17.8291,2.9714 -40.2526,-4.9433 -56.8284,-10.4686 -2.0064,-0.6688 -2.3716,-4.4865 -4.4865,-4.4865 -1.2122,0 19.5323,20.0941 20.9368,20.9369 13.2487,7.9492 27.2585,18.6131 41.8737,23.9278 18.1621,6.6044 35.93358,0.1499 53.98398,0.8796 -2.4431,1.0836 -4.9889,2.3004 -7.3576,3.3156 -12.6918,5.4393 -54.91238,26.1453 -67.67818,24.3217 -16.911,-2.4159 -43.8542,-25.3791 -54.9881,-25.3791 -7.7012,0 14.7148,29.3919 15.862,30.6666 18.1455,20.1618 46.8116,48.1855 74.0227,54.9882 33.51918,8.3798 95.70258,-21.7081 126.89608,-33.8389 6.5183,-2.5348 73.00623,-34.978 75.08039,-39.1264 0.99687,-1.9938 1.33279,-5.0558 2.11493,-7.4022 5.32629,-15.9789 9.6094,-33.2292 14.85204,-49.9091 4.87699,7.6837 10.47764,15.064 16.95779,22.0426 23.78662,25.6164 62.94333,40.1558 94.21566,53.8375 7.40166,3.2382 69.1178,23.2768 73.27881,14.9548 1.13348,-2.2669 -60.91061,-55.4608 -67.2968,-61.3147 -7.02045,-6.4355 -27.95961,-25.1961 -19.44134,-20.9369 45.90484,22.9525 69.63815,34.8251 124.1253,23.9276 3.14916,-0.6297 29.90965,-8.1911 29.90965,-13.4593 0,-1.0563 -31.10722,-3.9974 -32.90066,-4.4865 -24.3921,-6.6524 -51.03361,-13.2894 -73.27882,-25.4231 -2.18285,-1.1906 -38.63435,-22.6807 -34.39614,-26.9189 1.8982,-1.8982 4.93059,2.1421 7.4773,2.991 4.24791,1.416 10.85277,2.3599 14.95503,2.991 27.59593,4.2456 58.0223,2.4603 83.74713,-8.973 14.76093,-6.5603 62.8105,-39.7777 62.8105,-59.8193 0,-5.2044 -10.08196,2.6591 -14.95503,4.4866 -11.23109,4.2116 -23.84207,3.8515 -35.89165,2.9907 -42.53017,-3.0379 -80.84538,-22.6039 -120.33682,-37.2993 8.56124,-7.1283 16.48811,-14.3822 23.13037,-21.0245 1.45334,-1.4533 3.92646,1.4954 5.9818,1.4954 19.78222,0 42.76314,7.7058 64.306,8.973 15.12326,0.8896 132.54591,11.0207 140.57563,2.991 32.36829,-32.3684 50.12018,-87.1868 62.8105,-131.6028 7.51383,-26.2984 27.49636,-71.5459 17.94583,-100.1975 -0.21463,-0.6439 -0.75693,-0.8493 -1.54658,-0.7124 z"
       inkscape:export-filename="2020s_text.png"
       inkscape:export-xdpi="15.064896"
       inkscape:export-ydpi="15.064896" />
    <text
       xml:space="preserve"
       style="font-stretch:condensed;font-size:253.406px;font-family:Impact;-inkscape-font-specification:'Impact Condensed';fill:#000000;stroke:#ffffff;stroke-width:17.509;stroke-dasharray:none"
       x="-839.47198"
       y="3358.094"
       id="text36"
       inkscape:export-filename="2018_19text.png"
       inkscape:export-xdpi="15.064896"
       inkscape:export-ydpi="15.064896"><tspan
         sodipodi:role="line"
         id="tspan36"
         style="fill:#000000;stroke:#ffffff;stroke-width:17.509"
         x="-839.47198"
         y="3358.094">2020s</tspan></text>
  </g>
</svg>
